<?xml version="1.0" encoding="utf-8"?>
<!-- Generator: Adobe Illustrator 27.4.1, SVG Export Plug-In . SVG Version: 6.00 Build 0)  -->
<svg version="1.1" width="10" height="10" id="Layer_1" xmlns="http://www.w3.org/2000/svg" xmlns:xlink="http://www.w3.org/1999/xlink" x="0px" y="0px"
	 viewBox="100 100 200 300" style="enable-background:new 0 0 500 500;" xml:space="preserve">
<style type="text/css">
	.st0{clip-path:url(#SVGID_00000183970391245443456050000014283920931163486905_);}
	.st1{fill-rule:evenodd;clip-rule:evenodd;fill:#029E27;}
	.st2{fill-rule:evenodd;clip-rule:evenodd;fill:#037CBD;}
	.st3{fill-rule:evenodd;clip-rule:evenodd;fill:#5850A1;}
	.st4{clip-path:url(#SVGID_00000134227602833093511260000018065987465616568476_);}
	.st5{fill-rule:evenodd;clip-rule:evenodd;fill:#E80753;}
	.st6{fill-rule:evenodd;clip-rule:evenodd;fill:#FF5713;}
	.st7{fill-rule:evenodd;clip-rule:evenodd;fill:#FCAD14;}
</style>
<g>
	<g>
		<defs>
			<rect id="SVGID_1_" x="207.9" y="137" width="76" height="106.4"/>
		</defs>
		<clipPath id="SVGID_00000141452143929954765950000004297824426266014356_">
			<use xlink:href="#SVGID_1_"  style="overflow:visible;"/>
		</clipPath>
		<g style="clip-path:url(#SVGID_00000141452143929954765950000004297824426266014356_);">
			<path class="st1" d="M246.4,137.1c8.7,0,15.7,7.1,15.7,15.7c0,8.7-7.1,15.7-15.7,15.7c-8.7,0-15.7-7-15.7-15.7
				C230.6,144.1,237.7,137.1,246.4,137.1z M227.5,164.1c-8.3,0.1-11.6,1.7-15.4,9c-8,15.6-3.4,34.6,6.5,48.1
				c6.7,9.1,15.9,16.5,28.5,21.5c-8.9-9.9-16.6-20-21.2-30.7c16.4,5.2,22.8-2.9,30.9-14.7c6.9-10.1,15.8-17.2,26.3-21.8
				c-1.1-2.9-2.5-5.6-4.3-7.8c-3.3-4.1-7.7-6.2-13-4.8c-3.7,7-11,11.8-19.5,11.8C238.3,174.8,231.3,170.5,227.5,164.1z"/>
		</g>
	</g>
	<path class="st2" d="M150.3,196.7c4.3-7.5,14-10.1,21.5-5.8c7.5,4.3,10.1,14,5.8,21.5c-4.4,7.5-14,10.1-21.5,5.7
		C148.6,213.8,146,204.2,150.3,196.7z M164.3,226.5c-4.1,7.3-4.3,11,0.1,17.8c9.5,14.7,28.3,20.2,45,18.4
		c11.2-1.3,22.2-5.5,32.9-13.9c-13,2.7-25.6,4.4-37.2,3c12.7-11.6,8.9-21.2,2.7-34.1c-5.2-11-7-22.2-5.8-33.6
		c-3.1-0.5-6.1-0.6-8.9-0.2c-5.2,0.8-9.2,3.5-10.7,8.8c4.2,6.7,4.7,15.5,0.5,22.8C179,222.5,171.8,226.4,164.3,226.5z"/>
	<path class="st3" d="M154,309.6c-4.4-7.5-1.8-17.1,5.7-21.5c7.5-4.3,17.1-1.8,21.5,5.8c4.3,7.5,1.8,17.1-5.8,21.4
		C167.9,319.7,158.3,317.1,154,309.6z M186.8,312.4c4.2,7.2,7.3,9.2,15.4,8.8c17.5-0.9,31.7-14.4,38.4-29.7
		c4.5-10.4,6.4-22,4.4-35.4c-4.1,12.6-9,24.3-15.9,33.7c-3.7-16.8-13.9-18.3-28.2-19.4c-12.2-1-22.8-5-32-11.8c-2,2.5-3.6,5-4.7,7.6
		c-1.9,4.9-1.5,9.7,2.3,13.6c7.9-0.3,15.8,3.6,20,11C190.6,297.7,190.4,305.9,186.8,312.4z"/>
	<g>
		<defs>
			<rect id="SVGID_00000175302396804121201040000004485137343138001305_" x="215.9" y="256.8" width="77.3" height="106.2"/>
		</defs>
		<clipPath id="SVGID_00000078028334399481037910000001594303958572140731_">
			<use xlink:href="#SVGID_00000175302396804121201040000004485137343138001305_"  style="overflow:visible;"/>
		</clipPath>
		<g style="clip-path:url(#SVGID_00000078028334399481037910000001594303958572140731_);">
			<path class="st5" d="M253.6,362.9c-8.7,0-15.7-7-15.7-15.7c0-8.7,7-15.7,15.7-15.7c8.7,0,15.7,7,15.7,15.7
				C269.4,355.9,262.3,362.9,253.6,362.9z M272.5,335.9c8.3-0.1,11.7-1.7,15.4-9c8-15.6,3.4-34.6-6.6-48.1
				c-6.7-9.1-15.9-16.5-28.5-21.5c8.8,9.9,16.6,20,21.2,30.6c-16.4-5.2-22.8,2.9-30.9,14.7c-6.9,10.1-15.7,17.2-26.2,21.8
				c1.1,3,2.5,5.6,4.3,7.8c3.3,4.1,7.6,6.2,12.9,4.8c3.7-7,11.1-11.8,19.5-11.8C261.6,325.2,268.7,329.5,272.5,335.9z"/>
		</g>
	</g>
	<path class="st6" d="M349.7,303.3c-4.4,7.5-14,10.1-21.5,5.8c-7.5-4.4-10.1-14-5.8-21.5c4.3-7.5,14-10.1,21.5-5.8
		C351.4,286.2,354,295.8,349.7,303.3z M335.7,273.4c4.1-7.2,4.3-10.9-0.1-17.8c-9.5-14.7-28.3-20.2-45-18.4
		c-11.3,1.2-22.3,5.5-32.9,13.9c13-2.7,25.6-4.4,37.2-3c-12.7,11.6-8.9,21.2-2.7,34.1c5.3,11,7,22.2,5.8,33.6
		c3.1,0.5,6.1,0.6,8.9,0.2c5.2-0.8,9.2-3.5,10.6-8.8c-4.3-6.7-4.7-15.5-0.5-22.8C321,277.5,328.2,273.6,335.7,273.4z"/>
	<path class="st7" d="M346,190.4c4.3,7.5,1.8,17.1-5.8,21.5c-7.5,4.3-17.1,1.8-21.4-5.8c-4.4-7.5-1.8-17.1,5.7-21.5
		C332.1,180.3,341.7,182.9,346,190.4z M313.2,187.6c-4.2-7.1-7.3-9.2-15.4-8.8c-17.5,0.9-31.7,14.4-38.4,29.7
		c-4.6,10.4-6.4,22-4.4,35.4c4.1-12.6,9-24.3,15.9-33.7c3.7,16.8,13.9,18.3,28.2,19.4c12.2,1,22.8,5,32,11.8c2-2.4,3.6-4.9,4.7-7.6
		c1.9-4.9,1.5-9.7-2.3-13.6c-7.9,0.3-15.8-3.6-20-11C309.4,202.3,309.5,194.1,313.2,187.6z"/>
</g>
</svg>
